<svg xmlns="http://www.w3.org/2000/svg" viewBox="0 0 600 400" preserveAspectRatio="xMidYMid meet" role="img" aria-labelledby="title desc">
  <title id="title">Pv Diagram Diesel</title>
  <desc id="desc">Labeled diploma mechanical engineering diagram for Pv Diagram Diesel.</desc>
  <style>
    .bg{fill:#f8fafc}.panel{fill:#0f172a;opacity:.04}.part{fill:#f59e0b;stroke:#334155;stroke-width:2}.metal{fill:#94a3b8;stroke:#334155;stroke-width:2}.line{stroke:#e11d48;stroke-width:3;fill:none}.dim{stroke:#2563eb;stroke-width:2;fill:none;stroke-dasharray:5 4}.react{stroke:#16a34a;stroke-width:3;fill:none}.axis{stroke:#334155;stroke-width:2;fill:none}.txt{font-family:Arial,sans-serif;font-size:14px;font-weight:700;fill:#111827}.small{font-family:Arial,sans-serif;font-size:11px;fill:#334155}.phase{fill:#f97316;opacity:.18;stroke:#f59e0b;stroke-width:2}.curve{stroke:#f97316;stroke-width:4;fill:none}.area{fill:#38bdf8;opacity:.18;stroke:#0ea5e9;stroke-width:2}
    @media (prefers-color-scheme:dark){.bg{fill:#0f172a}.panel{fill:#ffffff;opacity:.05}.part{fill:#f59e0b;stroke:#f8fafc}.metal{fill:#475569;stroke:#e2e8f0}.axis{stroke:#e2e8f0}.txt{fill:#f8fafc}.small{fill:#cbd5e1}.area{fill:#0ea5e9;opacity:.28}}
  </style>
  <defs>
    <marker id="arrow-red" markerWidth="10" markerHeight="10" refX="8" refY="3" orient="auto"><path d="M0,0 L0,6 L8,3 z" fill="#e11d48"/></marker>
    <marker id="arrow-blue" markerWidth="10" markerHeight="10" refX="8" refY="3" orient="auto"><path d="M0,0 L0,6 L8,3 z" fill="#2563eb"/></marker>
    <marker id="arrow-green" markerWidth="10" markerHeight="10" refX="8" refY="3" orient="auto"><path d="M0,0 L0,6 L8,3 z" fill="#16a34a"/></marker>
  </defs>
  <rect class="bg" width="600" height="400"/>
  <rect class="panel" x="20" y="20" width="560" height="360" rx="18"/>
  <text class="txt" x="300" y="42" text-anchor="middle">Pv Diagram Diesel</text>
  <path class="axis" d="M105 320H525M105 320V80"/><path class="area" d="M170 300C205 178 270 92 348 96V170C480 178 520 255 430 310Z"/><path class="curve" d="M170 300C205 178 270 92 348 96L348 170C480 178 520 255 430 310Z"/><text class="small" x="210" y="180">1-2 isentropic</text><text class="small" x="360" y="116">2-3 heat addition</text><text class="small" x="430" y="220">3-4 expansion</text><text class="txt" x="518" y="346">V</text><text class="txt" x="70" y="90">P</text>
</svg>
