<svg xmlns="http://www.w3.org/2000/svg" viewBox="0 0 600 400" preserveAspectRatio="xMidYMid meet" role="img" aria-labelledby="title desc">
  <title id="title">Screw Jack</title>
  <desc id="desc">Labeled diploma mechanical engineering diagram for Screw Jack.</desc>
  <style>
    .bg{fill:#f8fafc}.panel{fill:#0f172a;opacity:.04}.part{fill:#f59e0b;stroke:#334155;stroke-width:2}.metal{fill:#94a3b8;stroke:#334155;stroke-width:2}.line{stroke:#e11d48;stroke-width:3;fill:none}.dim{stroke:#2563eb;stroke-width:2;fill:none;stroke-dasharray:5 4}.react{stroke:#16a34a;stroke-width:3;fill:none}.axis{stroke:#334155;stroke-width:2;fill:none}.txt{font-family:Arial,sans-serif;font-size:14px;font-weight:700;fill:#111827}.small{font-family:Arial,sans-serif;font-size:11px;fill:#334155}.phase{fill:#f97316;opacity:.18;stroke:#f59e0b;stroke-width:2}.curve{stroke:#f97316;stroke-width:4;fill:none}.area{fill:#38bdf8;opacity:.18;stroke:#0ea5e9;stroke-width:2}
    @media (prefers-color-scheme:dark){.bg{fill:#0f172a}.panel{fill:#ffffff;opacity:.05}.part{fill:#f59e0b;stroke:#f8fafc}.metal{fill:#475569;stroke:#e2e8f0}.axis{stroke:#e2e8f0}.txt{fill:#f8fafc}.small{fill:#cbd5e1}.area{fill:#0ea5e9;opacity:.28}}
  </style>
  <defs>
    <marker id="arrow-red" markerWidth="10" markerHeight="10" refX="8" refY="3" orient="auto"><path d="M0,0 L0,6 L8,3 z" fill="#e11d48"/></marker>
    <marker id="arrow-blue" markerWidth="10" markerHeight="10" refX="8" refY="3" orient="auto"><path d="M0,0 L0,6 L8,3 z" fill="#2563eb"/></marker>
    <marker id="arrow-green" markerWidth="10" markerHeight="10" refX="8" refY="3" orient="auto"><path d="M0,0 L0,6 L8,3 z" fill="#16a34a"/></marker>
  </defs>
  <rect class="bg" width="600" height="400"/>
  <rect class="panel" x="20" y="20" width="560" height="360" rx="18"/>
  <text class="txt" x="300" y="42" text-anchor="middle">Screw Jack</text>
  <rect class="metal" x="165" y="115" width="270" height="210" rx="18"/><rect class="part" x="250" y="78" width="100" height="34" rx="6"/><rect class="part" x="284" y="110" width="32" height="205"/><path class="dim" d="M300 122c-45 18 45 36 0 54s45 36 0 54 45 36 0 54"/><path class="line" d="M300 94H470" marker-end="url(#arrow-red)"/><path class="react" d="M300 56V78" marker-end="url(#arrow-green)"/><text class="txt" x="475" y="92">Handle arm L</text><text class="txt" x="355" y="138">Thread pitch p</text><text class="txt" x="214" y="103">Load table</text><text class="txt" x="186" y="340">Base and body</text>
</svg>
